<?xml version="1.0" encoding="UTF-8" standalone="no"?>
<!DOCTYPE svg PUBLIC "-//W3C//DTD SVG 1.1//EN" "http://www.w3.org/Graphics/SVG/1.1/DTD/svg11.dtd">
<svg width="100%" height="100%" viewBox="0 0 1408 379" version="1.1" xmlns="http://www.w3.org/2000/svg" xmlns:xlink="http://www.w3.org/1999/xlink" xml:space="preserve" xmlns:serif="http://www.serif.com/" style="fill-rule:evenodd;clip-rule:evenodd;stroke-linejoin:round;stroke-miterlimit:2;">
    <g transform="matrix(1,0,0,1,0,-292.749)">
        <path d="M266.063,360.98C236.765,358.903 213.73,359.705 182.509,373.247L228.013,298.355L266.063,360.98Z" style="fill:rgb(243,65,0);"/>
    </g>
    <g transform="matrix(1,0,0,1,0,81.9631)">
        <path d="M109.867,199.542L74.206,255.975C75.343,262.392 174.324,253.718 209.985,240.197C242.135,228.007 283.785,176.59 241.961,145.923C230.791,137.733 195.594,132.885 162.035,136.703C125.317,140.865 114.872,152.94 106.295,161.082C90.137,176.446 93.871,180.601 83.17,182.863C74.515,184.738 59.66,172.439 47.532,159.675C55.751,161.067 65.93,164.233 73.062,162.507C79.526,160.948 85.985,152.648 97.592,135.299C83.974,139.691 47.746,139.425 40.564,142.262C33.314,145.138 31.203,152.133 36.505,160.556C21.263,157.176 -4.824,116.56 11.741,110.352C28.295,104.167 43.029,93.553 52.92,86.345C63.209,78.861 63.55,72.461 72.524,62.6C82.333,51.748 124.809,30.666 181.911,15.415C242.373,-0.733 275.504,1.873 329.908,21.973C289.186,16.437 263.181,21.557 253.938,30.258C253.938,30.258 337.692,25.918 404.762,75.526C337.129,62.531 319.175,69.276 319.175,69.276C319.175,69.276 414.689,89.301 456.624,168.09C433.854,152.708 391.928,122.968 349.415,125.342C370.123,155.902 370.372,156.268 370.372,156.268L456.378,297.429L363.61,297.429L363.741,297.623L0,297.623L60.312,198.79C66.167,203.171 78.414,210.499 91.671,207.391C97.465,206.032 103.843,203.027 109.867,199.542ZM101.242,75.777C108.396,69.959 115.433,61.697 120.478,51.264C110.916,56.105 98.812,60.998 91.238,67.436C85.126,72.353 81.596,78.168 83.951,85.583C89.104,84.14 95.239,80.819 101.242,75.777Z" style="fill:rgb(243,65,0);fill-rule:nonzero;"/>
    </g>
    <g transform="matrix(1,0,0,1,0,22.6871)">
        <path d="M510.384,287.449C510.384,290.582 511.808,292.006 514.941,292.006L583.295,292.006C610.067,292.006 624.307,277.766 624.307,250.994L624.307,105.457C624.307,78.685 610.067,64.16 583.295,64.16L514.941,64.16C511.808,64.16 510.384,65.869 510.384,68.717L510.384,287.449ZM549.118,254.411L549.118,101.755L575.32,101.755C582.725,101.755 586.713,105.742 586.713,113.432L586.713,243.019C586.713,250.709 582.725,254.411 575.32,254.411L549.118,254.411Z" style="fill:rgb(243,65,0);fill-rule:nonzero;"/>
    </g>
    <g transform="matrix(1,0,0,1,0,51.1681)">
        <path d="M737.661,64.16C734.528,64.16 731.965,66.723 731.965,69.856L731.965,214.538C731.965,222.228 727.977,225.93 720.572,225.93L705.762,225.93C698.357,225.93 694.37,222.228 694.37,214.538L694.37,69.856C694.37,66.723 691.807,64.16 688.674,64.16L661.332,64.16C658.2,64.16 655.636,66.723 655.636,69.856L655.636,222.513C655.636,249.285 669.877,263.525 696.649,263.525L728.547,263.525C755.319,263.525 769.559,249.285 769.559,222.513L769.559,69.856C769.559,66.723 766.996,64.16 763.863,64.16L737.661,64.16Z" style="fill:rgb(243,65,0);fill-rule:nonzero;"/>
    </g>
    <g transform="matrix(1,0,0,1,0,51.1681)">
        <path d="M891.172,64.16C888.039,64.16 886.615,65.869 886.615,68.717L886.615,176.659L833.071,67.862C831.932,65.299 830.508,64.16 827.945,64.16L805.445,64.16C802.597,64.16 800.888,65.869 800.888,68.717L800.888,258.968C800.888,261.816 802.597,263.525 805.445,263.525L832.217,263.525C835.35,263.525 836.774,261.816 836.774,258.968L836.774,151.026L890.318,259.823C891.457,262.386 892.881,263.525 895.444,263.525L917.944,263.525C920.792,263.525 922.501,261.816 922.501,258.968L922.501,68.717C922.501,65.869 920.792,64.16 917.944,64.16L891.172,64.16Z" style="fill:rgb(243,65,0);fill-rule:nonzero;"/>
    </g>
    <g transform="matrix(1,0,0,1,0,51.1681)">
        <path d="M953.83,258.968C953.83,262.101 955.254,263.525 958.387,263.525L1026.74,263.525C1053.51,263.525 1067.75,249.285 1067.75,222.513L1067.75,105.457C1067.75,78.685 1053.51,64.16 1026.74,64.16L958.387,64.16C955.254,64.16 953.83,65.869 953.83,68.717L953.83,258.968ZM992.564,225.93L992.564,101.754L1018.77,101.754C1026.17,101.754 1030.16,105.742 1030.16,113.431L1030.16,214.538C1030.16,222.228 1026.17,225.93 1018.77,225.93L992.564,225.93Z" style="fill:rgb(243,65,0);fill-rule:nonzero;"/>
    </g>
    <g transform="matrix(1,0,0,1,0,51.1681)">
        <path d="M1213,105.172C1213,78.4 1198.76,64.16 1171.99,64.16L1103.64,64.16C1100.79,64.16 1099.08,65.869 1099.08,68.717L1099.08,258.968C1099.08,261.816 1100.79,263.525 1103.64,263.525L1131.55,263.525C1134.4,263.525 1136.11,261.816 1136.11,258.968L1136.11,203.431L1161.45,203.431L1175.13,259.538C1175.7,262.101 1177.12,263.525 1179.97,263.525L1207.88,263.525C1211.01,263.525 1212.72,261.816 1211.87,258.398L1197.06,197.165C1207.59,190.614 1213,178.937 1213,162.418L1213,105.172ZM1136.11,166.69L1136.11,100.9L1164.59,100.9C1171.99,100.9 1175.98,104.887 1175.98,112.292L1175.98,155.298C1175.98,162.703 1171.99,166.69 1164.59,166.69L1136.11,166.69Z" style="fill:rgb(243,65,0);fill-rule:nonzero;"/>
    </g>
    <g transform="matrix(1,0,0,1,0,51.1681)">
        <path d="M1378.76,263.525C1382.18,263.525 1383.6,261.816 1382.75,258.683L1335.47,68.147C1334.9,65.299 1333.19,64.16 1330.63,64.16L1291.04,64.16C1288.48,64.16 1286.77,65.299 1286.2,68.147L1238.92,258.683C1238.07,261.816 1239.49,263.525 1242.62,263.525L1270.54,263.525C1273.1,263.525 1274.52,262.101 1275.09,259.538L1283.92,223.652L1337.47,223.652L1346.58,259.538C1347.15,262.101 1348.57,263.525 1351.14,263.525L1378.76,263.525ZM1328.64,190.614L1292.75,190.614L1310.69,113.147L1328.64,190.614Z" style="fill:rgb(243,65,0);fill-rule:nonzero;"/>
    </g>
</svg>
