<?xml version="1.0" encoding="UTF-8" standalone="no"?>
<!DOCTYPE svg PUBLIC "-//W3C//DTD SVG 1.1//EN" "http://www.w3.org/Graphics/SVG/1.1/DTD/svg11.dtd">
<svg width="100%" height="100%" viewBox="0 0 32 32" version="1.1" xmlns="http://www.w3.org/2000/svg" xmlns:xlink="http://www.w3.org/1999/xlink" xml:space="preserve" xmlns:serif="http://www.serif.com/" style="fill-rule:evenodd;clip-rule:evenodd;stroke-linejoin:round;stroke-miterlimit:2;">
    <g id="Artboard1" transform="matrix(1,0,0,1.22098,0,0)">
        <rect x="0" y="0" width="32" height="26.208" style="fill:none;"/>
        <g transform="matrix(1,0,0,0.819011,0,2.37171)">
            <g transform="matrix(0.0700795,0,0,0.0700795,0,-20.9086)">
                <path d="M266.063,360.98C236.765,358.903 213.73,359.705 182.509,373.247L228.013,298.355L266.063,360.98Z" style="fill:rgb(243,65,0);"/>
            </g>
            <g transform="matrix(0.0700795,0,0,0.0700795,0,5.35107)">
                <path d="M109.867,199.542L74.206,255.975C75.343,262.392 174.324,253.718 209.985,240.197C242.135,228.007 283.785,176.59 241.961,145.923C230.791,137.733 195.594,132.885 162.035,136.703C125.317,140.865 114.872,152.94 106.295,161.082C90.137,176.446 93.871,180.601 83.17,182.863C74.515,184.738 59.66,172.439 47.532,159.675C55.751,161.067 65.93,164.233 73.062,162.507C79.526,160.948 85.985,152.648 97.592,135.299C83.974,139.691 47.746,139.425 40.564,142.262C33.314,145.138 31.203,152.133 36.505,160.556C21.263,157.176 -4.824,116.56 11.741,110.352C28.295,104.167 43.029,93.553 52.92,86.345C63.209,78.861 63.55,72.461 72.524,62.6C82.333,51.748 124.809,30.666 181.911,15.415C242.373,-0.733 275.504,1.873 329.908,21.973C289.186,16.437 263.181,21.557 253.938,30.258C253.938,30.258 337.692,25.918 404.762,75.526C337.129,62.531 319.175,69.276 319.175,69.276C319.175,69.276 414.689,89.301 456.624,168.09C433.854,152.708 391.928,122.968 349.415,125.342C370.123,155.902 370.372,156.268 370.372,156.268L456.378,297.429L363.61,297.429L363.741,297.623L0,297.623L60.312,198.79C66.167,203.171 78.414,210.499 91.671,207.391C97.465,206.032 103.843,203.027 109.867,199.542ZM101.242,75.777C108.396,69.959 115.433,61.697 120.478,51.264C110.916,56.105 98.812,60.998 91.238,67.436C85.126,72.353 81.596,78.168 83.951,85.583C89.104,84.14 95.239,80.819 101.242,75.777Z" style="fill:rgb(243,65,0);fill-rule:nonzero;"/>
            </g>
        </g>
    </g>
</svg>
